<?xml version="1.0" encoding="UTF-8"?>
<svg width="28px" height="30px" viewBox="0 0 28 30" version="1.1" xmlns="http://www.w3.org/2000/svg" xmlns:xlink="http://www.w3.org/1999/xlink">
    <!-- Generator: Sketch 57.1 (83088) - https://sketch.com -->
    <title>alert</title>
    <desc>Created with Sketch.</desc>
    <g id="Page-1" stroke="none" stroke-width="1" fill="none" fill-rule="evenodd">
        <g id="alert" fill="#61B2D6">
            <path d="M18.899,26 C18.4238481,28.3280031 16.3759983,30.0001005 14,30.0001005 C11.6240017,30.0001005 9.57615189,28.3280031 9.101,26 L0,26 L4,18 L4,10 C4,4.477 8.477,0 14,0 C19.523,0 24,4.477 24,10 L24,18 L28,26 L18.899,26 Z M14,28 C15.267742,27.9977321 16.3962473,27.1962368 16.816,26 L11.184,26 C11.6037527,27.1962368 12.732258,27.9977321 14,28 L14,28 Z M22,18 L22,10 C22,5.581722 18.418278,2 14,2 C9.581722,2 6,5.581722 6,10 L6,18 L3,24 L25,24 L22,18 Z" id="Shape"></path>
        </g>
    </g>
</svg>