<?xml version="1.0" encoding="UTF-8"?>
<svg width="29px" height="20px" viewBox="0 0 29 20" version="1.1" xmlns="http://www.w3.org/2000/svg" xmlns:xlink="http://www.w3.org/1999/xlink">
    <!-- Generator: Sketch 57.1 (83088) - https://sketch.com -->
    <title>note</title>
    <desc>Created with Sketch.</desc>
    <g id="Page-1" stroke="none" stroke-width="1" fill="none" fill-rule="evenodd">
        <g id="note" fill="#61B2D6">
            <path d="M28,11 L10,11 C9.44771525,11 9,10.5522847 9,10 C9,9.44771525 9.44771525,9 10,9 L28,9 C28.5522847,9 29,9.44771525 29,10 C29,10.5522847 28.5522847,11 28,11 Z M28,3 L10,3 C9.44771525,3 9,2.55228475 9,2 C9,1.44771525 9.44771525,1 10,1 L28,1 C28.5522847,1 29,1.44771525 29,2 C29,2.55228475 28.5522847,3 28,3 Z M3,20 C2.27499232,20.0163951 1.59791172,19.6390477 1.23048805,19.0138239 C0.863064386,18.3886001 0.862870555,17.6134684 1.22998148,16.9880609 C1.59709241,16.3626535 2.27398421,15.9849675 2.999,16.001 C4.0858799,16.0250345 4.95451232,16.9128655 4.95478423,18.0000111 C4.95505602,19.0871566 4.08686775,19.9754219 3,20 Z M3,12 C2.27499232,12.0163951 1.59791172,11.6390477 1.23048805,11.0138239 C0.863064386,10.3886001 0.862870555,9.61346842 1.22998148,8.98806095 C1.59709241,8.36265348 2.27398421,7.98496752 2.999,8.001 C4.0858799,8.02503449 4.95451232,8.91286548 4.95478423,10.0000111 C4.95505602,11.0871566 4.08686775,11.9754219 3,12 Z M3,4 C2.27499232,4.01639508 1.59791172,3.6390477 1.23048805,3.01382391 C0.863064386,2.38860012 0.862870555,1.61346842 1.22998148,0.988060947 C1.59709241,0.362653478 2.27398421,-0.0150324833 2.999,0.001 C4.0858799,0.0250344889 4.95451232,0.912865478 4.95478423,2.00001106 C4.95505602,3.08715664 4.08686775,3.97542194 3,4 Z M10,17 L28,17 C28.5522847,17 29,17.4477153 29,18 C29,18.5522847 28.5522847,19 28,19 L10,19 C9.44771525,19 9,18.5522847 9,18 C9,17.4477153 9.44771525,17 10,17 Z" id="Shape"></path>
        </g>
    </g>
</svg>